
<svg xmlns="http://www.w3.org/2000/svg" data-name="Layer 2" viewBox="0 0 100 125" x="0px" y="0px">
    <title>Artboard 1 copy 11</title>
    <path fill="#74afbe" d="M57.43,27.12a5.92,5.92,0,0,0,5.45-5.72,6.2,6.2,0,0,0-12.37,0A5.92,5.92,0,0,0,56,27.12ZM52.6,21.4a4.1,4.1,0,0,1,8.19,0,4.1,4.1,0,0,1-8.19,0Z"/>
    <path fill="#74afbe" d="M58.79,21.4a2.11,2.11,0,0,0-4.19,0,2.11,2.11,0,0,0,4.19,0Z"/>
    <rect fill="#74afbe" x="13.92" y="47.88" width="8.27" height="4.23"/>
    <path fill="#74afbe" d="M31.06,72.88l-2.15,6.37H84.48l-2.16-6.42a7.92,7.92,0,0,1-.85,0H31.06Z"/>
    <path fill="#74afbe" d="M34.26,70.88H75.79V29.12H34.26Zm2.35-37.5H70.09a1,1,0,0,1,0,2H36.61a1,1,0,0,1,0-2Zm0,6.24H70.09a1,1,0,0,1,0,2H36.61a1,1,0,0,1,0-2Zm0,6.26H70.09a1,1,0,0,1,0,2H36.61a1,1,0,0,1,0-2Zm0,6.24H70.09a1,1,0,0,1,0,2H36.61a1,1,0,0,1,0-2Zm0,6.26H70.09a1,1,0,0,1,0,2H36.61a1,1,0,0,1,0-2Zm0,6.24H70.09a1,1,0,0,1,0,2H36.61a1,1,0,0,1,0-2Z"/>
    <path fill="#74afbe" d="M24.19,34V66a4.87,4.87,0,0,0,4.86,4.86h3.21V29.12H29.05A4.87,4.87,0,0,0,24.19,34Z"/>
    <path fill="#74afbe" d="M81.47,29.12H77.79V70.88h3.68a7.72,7.72,0,0,0,7.71-7.71V36.83A7.72,7.72,0,0,0,81.47,29.12Z"/>
    <path fill="#74afbe" d="M93.58,44.75h-2.4v10.5h2.4A2.3,2.3,0,0,0,95.88,53V47A2.3,2.3,0,0,0,93.58,44.75Z"/>
    <path fill="#74afbe" d="M12.66,64.13V35.87a1,1,0,0,0-1-1H3.12a1,1,0,0,0-1,1V64.13a1,1,0,0,0,1,1h8.54A1,1,0,0,0,12.66,64.13Zm-2-1H4.12V60.42h6.54Zm0-4.71H4.12V55.71h6.54Zm0-4.71H4.12V51h6.54Zm0-4.71H4.12V46.29h6.54Zm0-4.71H4.12V41.58h6.54Zm0-4.71H4.12V36.87h6.54Z"/>
    <path fill="#74afbe" d="M90.18,83a1.73,1.73,0,0,0-1.73-1.73H24.94A1.73,1.73,0,0,0,23.21,83v1.4h67Z"/>
</svg>