 <svg version="1.1" xmlns="http://www.w3.org/2000/svg" xmlns:xlink="http://www.w3.org/1999/xlink" x="0px" y="0px" viewBox="0 0 1000 1000" enable-background="new 0 0 1000 1000" xml:space="preserve" >
    <g>
      <path d="M197.5,276.3L10,932.5h980L798.3,276.3H630.7V166h290.9V67.5H81.5l0.2,98h290.4l-3.6,109.9L197.5,276.3z M497.5,374.4c132.6,0,240.1,107.5,240.1,240.1S630.1,854.6,497.5,854.6c-132.6,0-240.1-107.5-240.1-240.1C257.4,481.9,364.9,374.4,497.5,374.4z"></path>
      <path d="M503.8,645c10,0,18.8-4.6,24.7-11.7l0.1,0.1l101.3-143.2l-146.4,98.1l0.1,0.1c-7.1,5.9-11.7,14.7-11.7,24.7C471.9,630.7,486.1,645,503.8,645z"></path>
  </g>
    </svg>