<svg xmlns:rdf="http://www.w3.org/1999/02/22-rdf-syntax-ns#" xmlns="http://www.w3.org/2000/svg" xmlns:cc="http://creativecommons.org/ns#" xmlns:dc="http://purl.org/dc/elements/1.1/" version="1.1" viewBox="0 -73 80 100" x="0px" y="0px"><path fill="#74afbe" d="m16.258 14.355c-0.846 0.001-1.669 0.351-2.258 0.961-9.1664 10.969-13.914 21.457-14 34.684 0 6.889 1.3867 13.575 4.1211 19.875 2.3903 5.508 5.714 10.491 9.8789 14.809 0.589 0.61 1.411 0.96 2.26 0.961 0.854 0 1.652-0.339 2.246-0.954l4.439-4.591c1.171-1.212 1.182-3.11 0.024-4.323-3.054-3.196-5.495-6.875-7.256-10.933-2.041-4.702-3.076-9.696-3.076-14.844s1.035-10.142 3.076-14.844c1.762-4.058 4.201-7.737 7.254-10.933 1.158-1.213 1.149-3.111-0.022-4.323l-4.439-4.591c-0.594-0.615-1.391-0.954-2.248-0.954zm67.482 0c-0.854 0-1.652 0.339-2.246 0.954l-4.439 4.591c-1.171 1.212-1.182 3.11-0.024 4.323 3.054 3.196 5.495 6.876 7.256 10.933 2.042 4.703 3.076 9.696 3.076 14.844s-1.035 10.142-3.076 14.844c-1.762 4.058-4.202 7.737-7.256 10.933-1.158 1.213-1.147 3.111 0.024 4.323l4.439 4.591c0.594 0.615 1.392 0.954 2.246 0.954 0.848 0 1.671-0.35 2.26-0.961 4.166-4.318 7.49-9.301 9.881-14.809 2.733-6.299 4.119-12.986 4.119-19.875s-1.387-13.575-4.121-19.875c-2.39-5.508-5.714-10.491-9.879-14.809-0.589-0.611-1.412-0.961-2.26-0.961zm-53.978 13.971c-0.871 0-1.707 0.367-2.295 1.006-5.194 5.643-8.053 12.982-8.053 20.668s2.859 15.025 8.053 20.668c0.588 0.639 1.424 1.006 2.295 1.006 0.856 0 1.657-0.339 2.252-0.955l4.445-4.6c1.13-1.168 1.175-3.028 0.102-4.236-2.908-3.272-4.51-7.493-4.51-11.883s1.601-8.609 4.51-11.883c1.072-1.207 1.028-3.068-0.102-4.236l-4.445-4.6c-0.595-0.616-1.396-0.955-2.252-0.955zm40.515 0c-0.857-0.01-1.694 0.338-2.291 0.955l-4.445 4.598c-1.13 1.169-1.174 3.03-0.102 4.238 2.909 3.273 4.51 7.493 4.51 11.883s-1.601 8.611-4.51 11.883c-1.072 1.208-1.027 3.067 0.102 4.236l4.445 4.6c0.589 0.609 1.406 0.955 2.252 0.955h0.037c0.856-0.011 1.68-0.378 2.258-1.006 5.077-6.729 8.011-12.913 8.053-20.668 0-7.686-2.859-15.025-8.053-20.668-0.578-0.629-1.4-0.995-2.256-1.006zm-20.277 7.59c-7.766 0-14.084 6.318-14.084 14.084s6.318 14.084 14.084 14.084 14.084-6.318 14.084-14.084-6.318-14.084-14.084-14.084z" transform="matrix(.8 0 0 .8 0 -73)"/></svg>