<svg class="box" xmlns:inkscape="http://www.inkscape.org/namespaces/inkscape" xmlns:rdf="http://www.w3.org/1999/02/22-rdf-syntax-ns#" xmlns="http://www.w3.org/2000/svg" xmlns:sodipodi="http://sodipodi.sourceforge.net/DTD/sodipodi-0.dtd" xmlns:cc="http://creativecommons.org/ns#" xmlns:xlink="http://www.w3.org/1999/xlink" xmlns:dc="http://purl.org/dc/elements/1.1/" xmlns:svg="http://www.w3.org/2000/svg" xmlns:ns1="http://sozi.baierouge.fr" id="svg2" sodipodi:docname="package.svg" viewBox="0 0 188.33 197.75" sodipodi:version="0.32" version="1.0" inkscape:output_extension="org.inkscape.output.svg.inkscape" inkscape:version="0.46">
  <defs id="defs5">
    <linearGradient id="linearGradient3498" y2="722.69" gradientUnits="userSpaceOnUse" x2="1800.9" gradientTransform="matrix(2.5111 0 0 2.5111 -4465.6 -1731)" y1="721.07" x1="1779.5" inkscape:collect="always">
      <stop id="stop3359" style="stop-color:#bb9652" offset="0"/>
      <stop id="stop3361" style="stop-color:#d4bf8a" offset="1"/>
    </linearGradient>
    <linearGradient id="linearGradient3501" y2="707.71" gradientUnits="userSpaceOnUse" x2="1828.8" gradientTransform="matrix(2.5111 0 0 2.5111 -4464.8 -1730.2)" y1="754.31" x1="1834" inkscape:collect="always">
      <stop id="stop3375" style="stop-color:#a28650" offset="0"/>
      <stop id="stop3377" style="stop-color:#dac491" offset="1"/>
    </linearGradient>
    <linearGradient id="linearGradient3504" y2="695.62" gradientUnits="userSpaceOnUse" x2="1835.6" gradientTransform="matrix(2.5111 0 0 2.5111 -4464.8 -1730.2)" y1="704.37" x1="1788.1" inkscape:collect="always">
      <stop id="stop3367" style="stop-color:#dccb94" offset="0"/>
      <stop id="stop3369" style="stop-color:#c4a95a" offset="1"/>
    </linearGradient>
  </defs>
  <path id="path2894" style="fill-rule:evenodd;fill:#d3bc5f" d="m110.29 1.9932l76.29 32.459v112.91l-76.29-56.297v-89.07z"/>
  <path id="path2896" style="fill-rule:evenodd;fill:url(#linearGradient3504)" d="m1.5117 18.829l55.887 43.794 129.18-28.171-76.29-32.459-108.78 16.836z"/>
  <path id="path2898" style="fill-rule:evenodd;fill:url(#linearGradient3501)" d="m57.399 62.623v133.77l129.18-49.03v-112.91l-129.18 28.173z"/>
  <path id="path2900" style="fill-rule:evenodd;fill:url(#linearGradient3498)" d="m0.6238 17.941l55.887 43.794v133.78l-55.887-76.02-0.0002-101.56z"/>
  <path id="path2575" sodipodi:nodetypes="cc" style="stroke:#784421;stroke-width:2.5111px;fill:none" d="m60.085 10.357l68.255 36.476"/>
  <path id="path3353" style="stroke:#c7a768;stroke-width:2.5111px;fill:none" d="m1.5695 18.833l55.872 43.631 129.64-27.936"/>
  <path id="path2577" sodipodi:nodetypes="cccccccccccc" style="opacity:.42169;fill-rule:evenodd;fill-opacity:.36486;stroke:#ffffff;stroke-width:.50222;fill:#34dbdb" d="m140.9 44.454l0.19 10.79-3.84-6.513-3.06 7.534-2.91-6.278-3.68 6.513-1.73-3.767-3.92 6.592-1.57-5.022-4.63 7.533-0.36-11.849 25.51-5.533z"/>
  <path id="path3355" style="stroke:#c7a768;stroke-width:2.5111px;fill:none" d="m57.128 62.15v134.34"/>
  <path id="path3349" sodipodi:nodetypes="ccccc" style="opacity:.5;fill-rule:evenodd;stroke:#ffffff;stroke-width:.50222;fill:#a9c7c9" d="m115.35 49.908l-66.226-38.451 21.03-3.139 70.936 36.097-25.74 5.493z"/>
  <path id="path3351" sodipodi:nodetypes="ccccccc" style="stroke:#6c5434;stroke-width:2.5111px;fill:none" d="m1.2556 18.833l0.3139 101.39 54.93 75.65 130.26-48.66-0.31-113.31-76.59-32.644-108.6 17.577z"/>

</svg>